<svg width="11" height="12" viewBox="0 0 11 12" fill="none" xmlns="http://www.w3.org/2000/svg">
<path d="M10.9712 4.46688C10.8988 4.2442 10.7012 4.08654 10.4684 4.06548L7.29306 3.77727L6.03813 0.839946C5.94548 0.624144 5.73466 0.484863 5.50001 0.484863C5.26535 0.484863 5.05445 0.624144 4.96239 0.839946L3.70746 3.77727L0.531585 4.06548C0.298778 4.08696 0.101639 4.24462 0.0287928 4.46688C-0.0436342 4.68956 0.0232538 4.93381 0.199328 5.08819L2.59966 7.19243L1.89192 10.3088C1.84014 10.5379 1.9291 10.7749 2.11927 10.9123C2.22149 10.9866 2.34159 11.0237 2.4621 11.0237C2.56567 11.0237 2.66931 10.9961 2.76188 10.9408L5.50001 9.30396L8.23763 10.9408C8.43846 11.0608 8.69099 11.0498 8.88074 10.9123C9.07092 10.7749 9.15987 10.5379 9.10809 10.3088L8.40036 7.19243L10.8007 5.08819C10.9767 4.93381 11.0436 4.69006 10.9712 4.46688Z" fill="#B04D50"/>
</svg>
