<svg width="11" height="10" viewBox="0 0 11 10" fill="none" xmlns="http://www.w3.org/2000/svg">
<path d="M5.8125 2.34766C4.4375 2.34766 3.3418 3.46484 3.3418 4.81836C3.3418 6.19336 4.4375 7.28906 5.8125 7.28906C7.16602 7.28906 8.2832 6.19336 8.2832 4.81836C8.2832 3.46484 7.16602 2.34766 5.8125 2.34766ZM5.8125 6.42969C4.93164 6.42969 4.20117 5.7207 4.20117 4.81836C4.20117 3.9375 4.91016 3.22852 5.8125 3.22852C6.69336 3.22852 7.40234 3.9375 7.40234 4.81836C7.40234 5.7207 6.69336 6.42969 5.8125 6.42969ZM8.94922 2.26172C8.94922 1.93945 8.69141 1.68164 8.36914 1.68164C8.04688 1.68164 7.78906 1.93945 7.78906 2.26172C7.78906 2.58398 8.04688 2.8418 8.36914 2.8418C8.69141 2.8418 8.94922 2.58398 8.94922 2.26172ZM10.582 2.8418C10.5391 2.06836 10.3672 1.38086 9.80859 0.822266C9.25 0.263672 8.5625 0.0917969 7.78906 0.0488281C6.99414 0.00585938 4.60938 0.00585938 3.81445 0.0488281C3.04102 0.0917969 2.375 0.263672 1.79492 0.822266C1.23633 1.38086 1.06445 2.06836 1.02148 2.8418C0.978516 3.63672 0.978516 6.02148 1.02148 6.81641C1.06445 7.58984 1.23633 8.25586 1.79492 8.83594C2.375 9.39453 3.04102 9.56641 3.81445 9.60938C4.60938 9.65234 6.99414 9.65234 7.78906 9.60938C8.5625 9.56641 9.25 9.39453 9.80859 8.83594C10.3672 8.25586 10.5391 7.58984 10.582 6.81641C10.625 6.02148 10.625 3.63672 10.582 2.8418ZM9.55078 7.6543C9.40039 8.08398 9.05664 8.40625 8.64844 8.57812C8.00391 8.83594 6.5 8.77148 5.8125 8.77148C5.10352 8.77148 3.59961 8.83594 2.97656 8.57812C2.54688 8.40625 2.22461 8.08398 2.05273 7.6543C1.79492 7.03125 1.85938 5.52734 1.85938 4.81836C1.85938 4.13086 1.79492 2.62695 2.05273 1.98242C2.22461 1.57422 2.54688 1.25195 2.97656 1.08008C3.59961 0.822266 5.10352 0.886719 5.8125 0.886719C6.5 0.886719 8.00391 0.822266 8.64844 1.08008C9.05664 1.23047 9.37891 1.57422 9.55078 1.98242C9.80859 2.62695 9.74414 4.13086 9.74414 4.81836C9.74414 5.52734 9.80859 7.03125 9.55078 7.6543Z" fill="white"/>
</svg>
