<svg width="18" height="19" viewBox="0 0 18 19" fill="none" xmlns="http://www.w3.org/2000/svg">
<path d="M0.703125 11.1914C0.314789 11.1914 0 10.8766 0 10.4883V5.88281C0 4.332 1.26169 3.07031 2.8125 3.07031H15.1875C16.7383 3.07031 18 4.332 18 5.88281V14.0039C18 15.5547 16.7383 16.8164 15.1875 16.8164H2.8125C1.26169 16.8164 0 15.5547 0 14.0039C0 13.6156 0.314789 13.3008 0.703125 13.3008C1.09146 13.3008 1.40625 13.6156 1.40625 14.0039C1.40625 14.7793 2.03709 15.4102 2.8125 15.4102H15.1875C15.9629 15.4102 16.5938 14.7793 16.5938 14.0039V6.03181L10.4852 9.83026C10.0271 10.1151 9.51356 10.2575 9 10.2575C8.48644 10.2575 7.97288 10.1151 7.51482 9.83026L1.40625 6.03181V10.4883C1.40625 10.8766 1.09146 11.1914 0.703125 11.1914ZM8.25743 8.63604C8.71544 8.92084 9.28455 8.92088 9.74257 8.63604L16.007 4.74066C15.7761 4.57451 15.493 4.47656 15.1875 4.47656H2.8125C2.50696 4.47656 2.22388 4.57454 1.99297 4.74069L8.25743 8.63604Z" fill="white"/>
</svg>
