<svg width="25" height="26" viewBox="0 0 25 26" fill="none" xmlns="http://www.w3.org/2000/svg">
<g clip-path="url(#clip0_6_3147)">
<path d="M0.00245094 21.0875C0.0373154 20.1204 0.440147 19.218 1.13668 18.5464C2.5005 17.2313 3.64318 16.4721 4.73273 16.1573C6.23395 15.7234 7.62457 16.1179 8.86559 17.3299C8.86744 17.3317 8.8693 17.3336 8.87115 17.3354L10.1915 18.6459C11.0166 18.1807 12.6211 17.1594 14.3546 15.426L14.4831 15.2975C16.2169 13.5638 17.2381 11.959 17.7028 11.1348L16.3923 9.81443C16.3904 9.81257 16.3886 9.81072 16.3867 9.80881C15.1748 8.56789 14.7802 7.17737 15.2141 5.67595C15.529 4.58645 16.2881 3.44377 17.6032 2.07996C18.2748 1.38352 19.1772 0.980688 20.1442 0.945825C21.1119 0.910913 22.0404 1.24773 22.7605 1.89412L22.7885 1.91931C22.8015 1.93098 22.8142 1.94304 22.8266 1.9554C24.2602 3.38894 25.0116 5.39582 24.9999 7.75915C24.9798 11.7739 22.7733 16.3651 19.0976 20.0408C18.4045 20.7339 17.6167 21.4198 16.7563 22.0796C16.3283 22.4077 15.7153 22.3269 15.3871 21.8989C15.0589 21.4708 15.1399 20.8578 15.5679 20.5297C16.3606 19.9218 17.0835 19.2927 17.7165 18.6598C21.0366 15.3397 23.0293 11.2611 23.0468 7.74944C23.0558 5.92932 22.5083 4.41013 21.4632 3.35417L21.4558 3.34744C20.746 2.71028 19.6713 2.74905 19.0091 3.43572C16.4808 6.05769 16.6639 7.29553 17.7811 8.44114L19.5913 10.265C19.8752 10.551 19.9543 10.9821 19.7903 11.3502C19.7444 11.4534 18.6326 13.9101 15.8638 16.6789L15.7353 16.8073C12.9668 19.5758 10.5101 20.6875 10.4068 20.7335C10.0388 20.8975 9.60763 20.8184 9.32164 20.5345L7.49776 18.7242C6.35201 17.607 5.11417 17.424 2.49234 19.9523C1.80567 20.6144 1.7669 21.6891 2.40392 22.3988L2.41085 22.4065C3.45816 23.443 4.96119 23.9901 6.76149 23.9901C6.77633 23.9901 6.79117 23.9901 6.80606 23.99C8.24508 23.9828 9.91144 23.5884 11.6249 22.8493C12.12 22.6356 12.6947 22.8639 12.9083 23.3592C13.1219 23.8545 12.8937 24.4291 12.3984 24.6427C10.4178 25.497 8.53961 25.9345 6.81578 25.9431C6.79747 25.9432 6.77931 25.9432 6.761 25.9432C4.42145 25.9432 2.43448 25.1923 1.01202 23.7699C0.99967 23.7575 0.987658 23.7448 0.975986 23.7318L0.950645 23.7036C0.304308 22.9836 -0.0324612 22.0545 0.00245094 21.0875Z" fill="white"/>
</g>
<defs>
<clipPath id="clip0_6_3147">
<rect width="25" height="25" fill="white" transform="matrix(-1 0 0 1 25 0.943359)"/>
</clipPath>
</defs>
</svg>
