<svg width="22" height="22" viewBox="0 0 22 22" fill="none" xmlns="http://www.w3.org/2000/svg">
<path d="M10.9908 1.83325C5.93075 1.83325 1.83325 5.93992 1.83325 10.9999C1.83325 16.0599 5.93075 20.1666 10.9908 20.1666C16.0599 20.1666 20.1666 16.0599 20.1666 10.9999C20.1666 5.93992 16.0599 1.83325 10.9908 1.83325ZM10.9999 18.3333C6.94825 18.3333 3.66659 15.0516 3.66659 10.9999C3.66659 6.94825 6.94825 3.66659 10.9999 3.66659C15.0516 3.66659 18.3333 6.94825 18.3333 10.9999C18.3333 15.0516 15.0516 18.3333 10.9999 18.3333Z" fill="white"/>
<path d="M11.4583 6.41675H10.0833V11.9167L14.8958 14.8042L15.5833 13.6767L11.4583 11.2292V6.41675Z" fill="white"/>
</svg>
