<svg width="13" height="9" viewBox="0 0 13 9" fill="none" xmlns="http://www.w3.org/2000/svg">
<path d="M11.8164 1.98242C11.7448 1.72461 11.6159 1.5026 11.4297 1.31641C11.2435 1.13021 11.0215 1.0013 10.7637 0.929688C10.3913 0.829427 9.51758 0.757812 8.14258 0.714844L6.1875 0.693359L4.23242 0.714844C2.85742 0.757812 1.98372 0.829427 1.61133 0.929688C1.35352 1.0013 1.13151 1.13021 0.945312 1.31641C0.759115 1.5026 0.630208 1.72461 0.558594 1.98242C0.458333 2.36914 0.386719 2.95638 0.34375 3.74414C0.329427 4.14518 0.322266 4.50326 0.322266 4.81836L0.34375 5.89258C0.386719 6.69466 0.458333 7.28906 0.558594 7.67578C0.630208 7.91927 0.759115 8.13411 0.945312 8.32031C1.13151 8.50651 1.35352 8.63542 1.61133 8.70703C1.98372 8.80729 2.85742 8.87891 4.23242 8.92188L6.1875 8.94336L8.14258 8.92188C9.51758 8.87891 10.3913 8.80729 10.7637 8.70703C11.0215 8.63542 11.2435 8.50651 11.4297 8.32031C11.6159 8.13411 11.7448 7.91927 11.8164 7.67578C11.9167 7.28906 11.9883 6.69466 12.0312 5.89258L12.0527 4.81836L12.0312 3.74414C11.9883 2.95638 11.9167 2.36914 11.8164 1.98242ZM4.98438 6.58008V3.07812L8.05664 4.81836L4.98438 6.58008Z" fill="white"/>
</svg>
