<svg id="Layer_1" data-name="Layer 1" xmlns="http://www.w3.org/2000/svg" viewBox="0 0 206.07 107.91"><defs><style>.cls-1{fill:#020303;}.cls-2{fill:#fdc800;}</style></defs><path class="cls-1" d="M65,101.25H63.79l0,.41v.13a2.57,2.57,0,0,1-1,2.06,3.65,3.65,0,0,1-2.41.89H58.26a3.4,3.4,0,0,1-2.82-1.3,4.73,4.73,0,0,1-1-3V97.52h2.15v3.4a1.58,1.58,0,0,0,.46,1.17,1.8,1.8,0,0,0,1.44.52H60.3a1.23,1.23,0,0,0,.51-.09,1.29,1.29,0,0,0,.49-.24.94.94,0,0,0,.37-.78c-.05-.19-.28-.28-.68-.28h-.08l-1.76,0h-.3l-.21-2.12H65Z" transform="translate(-53.93)"/><path class="cls-1" d="M68.92,101.25H64.48V99.13h4.44Z" transform="translate(-53.93)"/><path class="cls-1" d="M73.49,96.15l0,2.49a2.66,2.66,0,0,1-.64,1.8,2.14,2.14,0,0,1-1.71.81H68.45V99.13h2.22a.84.84,0,0,0,.55-.16,1.09,1.09,0,0,0,.1-.53V96.15ZM72,94.2a1.39,1.39,0,0,1-.39,1,1.63,1.63,0,0,1-.47.28,1.85,1.85,0,0,1-.53.11,1.24,1.24,0,0,1-1.37-1.36v0a1.05,1.05,0,0,1,.36-.83,1.48,1.48,0,0,1,1-.33,2.28,2.28,0,0,1,.55.08A1.14,1.14,0,0,1,72,94.2Z" transform="translate(-53.93)"/><path class="cls-1" d="M78.28,101.25h-.41a3,3,0,0,1-2.28-.77,2.72,2.72,0,0,1-.6-1.7V91.66h2.13v6.5c0,.41.1.68.31.8a1.27,1.27,0,0,0,.53.17A3.17,3.17,0,0,0,79.12,99q.18-.14.18-.93a3.31,3.31,0,0,1,.75-2.21,2.54,2.54,0,0,1,2-.89,2.64,2.64,0,0,1,2.09,1A3.18,3.18,0,0,1,85,98.11a1.27,1.27,0,0,0,.18.83c.12.13.5.19,1.12.19v2.12a3.71,3.71,0,0,1-1.22-.17,2.06,2.06,0,0,1-1-.6,3.83,3.83,0,0,1-1,.63l-.46.13H82.1a2.79,2.79,0,0,1-1.15-.2l-.41-.27a5.37,5.37,0,0,1-.43-.36,1.18,1.18,0,0,1-.74.65.84.84,0,0,0-.26.06l-.38.06Zm4.89-3.14a1.12,1.12,0,0,0-.28-.78.93.93,0,0,0-.72-.32c-.65,0-1,.37-1,1.1v.06a1,1,0,0,0,.25.73.92.92,0,0,0,.73.29.94.94,0,0,0,.73-.3A1.16,1.16,0,0,0,83.17,98.11Z" transform="translate(-53.93)"/><path class="cls-1" d="M93,101.25h-.8a5.68,5.68,0,0,1-1-.06,2.61,2.61,0,0,1-.8-.36,2.49,2.49,0,0,1-1.13.33,20.26,20.26,0,0,1-2.18.09H85.8V99.13h1.44c.75,0,1.17,0,1.26,0,.58-.08.87-.31.87-.67V96.15h2.17v2.29c0,.31.06.51.2.59a8.42,8.42,0,0,0,1.29.1Zm-4.17-6.93a1.29,1.29,0,0,1-.39.87,3.4,3.4,0,0,1-.42.26,1.62,1.62,0,0,1-.51.11,1.29,1.29,0,0,1-.91-.37,1.15,1.15,0,0,1-.4-.87c0-.75.44-1.13,1.31-1.15a1.51,1.51,0,0,1,.93.33A1,1,0,0,1,88.86,94.32Zm2.85,0a1.29,1.29,0,0,1-.39.87,2.82,2.82,0,0,1-.44.26,1.46,1.46,0,0,1-.49.11,1.26,1.26,0,0,1-.92-.34,1.21,1.21,0,0,1-.38-.9v-.06a1,1,0,0,1,.33-.78,1.45,1.45,0,0,1,1-.31h.06a1.32,1.32,0,0,1,.85.3A1.14,1.14,0,0,1,91.71,94.32Z" transform="translate(-53.93)"/><path class="cls-1" d="M100.91,98.44l-3.15,1.76a8.19,8.19,0,0,1-2.27.91c-.28,0-.67.09-1.18.13H92.56V99.13a11.86,11.86,0,0,0,3.63-.34c.15-.05.63-.29,1.45-.72a8.94,8.94,0,0,0,1-.57.82.82,0,0,0-.32-.44,1.71,1.71,0,0,0-.94-.19h-3.2l-.28-1.93h3.86Q100.92,94.94,100.91,98.44Zm-2.68-5.58a1.23,1.23,0,0,1-.41,1,1.46,1.46,0,0,1-1,.39,1.9,1.9,0,0,1-.58-.09.82.82,0,0,1-.59-.45,1.72,1.72,0,0,1-.24-.8A1.13,1.13,0,0,1,95.8,92a1.53,1.53,0,0,1,1-.32,2.26,2.26,0,0,1,.55.06,1.36,1.36,0,0,1,.46.24A1,1,0,0,1,98.23,92.86Z" transform="translate(-53.93)"/><path class="cls-1" d="M105.48,101.25c-1.38,0-2.28-.25-2.68-.77a2.73,2.73,0,0,1-.61-1.7V91.66h2.13v6.5c0,.41.1.68.31.8a1.6,1.6,0,0,0,.85.19Z" transform="translate(-53.93)"/><path class="cls-1" d="M116.78,98.65a3.12,3.12,0,0,1-.58,2,2.08,2.08,0,0,1-1.8.86,2.65,2.65,0,0,1-1.88-.8,2.37,2.37,0,0,1-1.71.76,3.1,3.1,0,0,1-.49,0,3.76,3.76,0,0,1-1.39-.9,2.78,2.78,0,0,1-1,.61l-.83.14H105V99.13h2l.14,0h.11a1.86,1.86,0,0,0,.21-.14.62.62,0,0,0,.12-.46V96.15h2.13V98.6a.58.58,0,0,0,.28.5,1,1,0,0,0,.53.2h0c.36,0,.53-.16.53-.47V96.15h2.13V98.6a.59.59,0,0,0,.26.5.93.93,0,0,0,.55.2h.05a.68.68,0,0,0,.32-.11.55.55,0,0,0,.19-.36V96.15h2.15Z" transform="translate(-53.93)"/><path class="cls-1" d="M129.38,101.25h-.86a4.59,4.59,0,0,1-1.7-.33,1.75,1.75,0,0,1-1.15-1.23l-2,1a3.14,3.14,0,0,0-1.26,1.07,2.22,2.22,0,0,0-.41,1.34,2.59,2.59,0,0,0,.76,1.85,2.37,2.37,0,0,0,1.75.79h4.35l.18,2.15h-4.21a4.84,4.84,0,0,1-3.5-1.34,4.56,4.56,0,0,1-1.39-3.45,3.79,3.79,0,0,1,2.14-3.71l3.77-1.91a1,1,0,0,0-.32-.44,1.53,1.53,0,0,0-.93-.19h-3.22l-.26-1.93H125q3.2,0,3.19,3.5L127.1,99a2.94,2.94,0,0,0,1.17.14h1.11Z" transform="translate(-53.93)"/><path class="cls-1" d="M133.05,98.76a2.38,2.38,0,0,1-.7,1.83,2.65,2.65,0,0,1-1.89.66h-1.55V99.13h1.44a.5.5,0,0,0,.49-.22s0-.07,0-.26a3.49,3.49,0,0,0,0-.51V91.65h2.14Z" transform="translate(-53.93)"/><path class="cls-1" d="M138.14,101.25c-1.39,0-2.28-.25-2.69-.77a2.72,2.72,0,0,1-.6-1.7V91.66H137v6.5c0,.41.11.68.32.8a1.58,1.58,0,0,0,.85.19Z" transform="translate(-53.93)"/><path class="cls-1" d="M150.54,101.25h-7.37a2.4,2.4,0,0,1-2-.79,2.42,2.42,0,0,1-1.83.79h-1.68V99.13h1.79a.47.47,0,0,0,.17-.07c.11,0,.17-.23.17-.54V96.15h2.14v2.17a.74.74,0,0,0,.66.79,9,9,0,0,1,1.87-3.06A3.19,3.19,0,0,1,146.71,95a2.44,2.44,0,0,1,1.41.48,3,3,0,0,1,1,1.15,3.64,3.64,0,0,1,.41,1.66,4,4,0,0,1-.11.87h1.16Zm-3.14-2.93c0-.17,0-.28,0-.34a2.37,2.37,0,0,0-.1-.37.59.59,0,0,0-.56-.52q-.4,0-1,.63a10.28,10.28,0,0,0-.92,1.41h2.07a.42.42,0,0,0,.34-.21A1.16,1.16,0,0,0,147.4,98.32Z" transform="translate(-53.93)"/><path class="cls-1" d="M157,98.11a3.27,3.27,0,0,1-.79,2.25,3,3,0,0,1-3.21.69,2.21,2.21,0,0,1-.86-.63,1.11,1.11,0,0,1-.83.69l-.6.13h-.65V99.13h.23a3.15,3.15,0,0,0,.77,0q.27-.09.27-.63v-.39a3.2,3.2,0,0,1,.78-2.22,2.55,2.55,0,0,1,2-.88,2.64,2.64,0,0,1,2.09,1A3.26,3.26,0,0,1,157,98.11Zm-1.87,0a1,1,0,0,0-1-1.1.85.85,0,0,0-.7.32,1.2,1.2,0,0,0-.26.78,3,3,0,0,0,0,.43,3.1,3.1,0,0,0,.22.37,1,1,0,0,0,.71.28.93.93,0,0,0,.73-.3A1.16,1.16,0,0,0,155.14,98.11Z" transform="translate(-53.93)"/><path class="cls-1" d="M171.29,101.25h-.83a1.54,1.54,0,0,1-.38-.2,3.45,3.45,0,0,1-1.12,2.64,3.89,3.89,0,0,1-2.75,1H164.1a3.43,3.43,0,0,1-2.67-1.2,4,4,0,0,1-1-2.76V97.52h2.14V101a1.49,1.49,0,0,0,.54,1.19,1.89,1.89,0,0,0,1.28.47h1.75a1.91,1.91,0,0,0,1.28-.48A1.49,1.49,0,0,0,168,101v-4.8h2.12v2.37a.63.63,0,0,0,.23.5,2.73,2.73,0,0,0,1,.11Zm-5-5a1.24,1.24,0,0,1-.88,1.19,2,2,0,0,1-.52.09,1.61,1.61,0,0,1-1-.31,1.18,1.18,0,0,1-.39-1,1.14,1.14,0,0,1,.38-.9,1,1,0,0,1,.44-.26,2.05,2.05,0,0,1,.59-.08C165.81,95,166.28,95.38,166.28,96.21Z" transform="translate(-53.93)"/><path class="cls-1" d="M175.26,101.25h-4.44V99.13h4.44Z" transform="translate(-53.93)"/><path class="cls-1" d="M180.51,98.64a2.66,2.66,0,0,1-.64,1.8,2.21,2.21,0,0,1-1.73.81h-3.35V99.13h2.9a.76.76,0,0,0,.54-.16,1.07,1.07,0,0,0,.11-.53V96.15h2.17Zm-2.8,4.88a1.24,1.24,0,0,1-.39.86,2.82,2.82,0,0,1-.42.27,2,2,0,0,1-.51.09,1.51,1.51,0,0,1-.94-.34,1.18,1.18,0,0,1-.37-.88,1.12,1.12,0,0,1,.35-.84,1.89,1.89,0,0,1,.45-.21,1.52,1.52,0,0,1,.51-.09,1.38,1.38,0,0,1,.92.31A1.06,1.06,0,0,1,177.71,103.52Zm2.84,0a1.26,1.26,0,0,1-.38.86,2.27,2.27,0,0,1-.44.27,1.65,1.65,0,0,1-.49.09,1.32,1.32,0,0,1-.93-.33,1.21,1.21,0,0,1-.37-.89v0a1.07,1.07,0,0,1,.34-.8,2,2,0,0,1,.44-.21,1.63,1.63,0,0,1,.52-.09,1.39,1.39,0,0,1,.93.31A1.07,1.07,0,0,1,180.55,103.52Z" transform="translate(-53.93)"/><path class="cls-1" d="M190.36,101.25h-.8a1,1,0,0,1-.45-.13,1.6,1.6,0,0,1-.75-.53,2.54,2.54,0,0,1-1.86.67h-1.29a3.07,3.07,0,0,1-2.49-.75,2.38,2.38,0,0,1-.24-.37,2.34,2.34,0,0,1-.19-.44,2.76,2.76,0,0,1-.14-.93V91.65h2.13v6.49a1.8,1.8,0,0,0,.12.87l.28.1h.23l.3,0h1.2a.48.48,0,0,0,.47-.22,2.26,2.26,0,0,0,.05-.3c0-.15,0-.3,0-.47V91.65h2.14v6.63a.67.67,0,0,0,.35.63,1.55,1.55,0,0,0,.73.18h.19Z" transform="translate(-53.93)"/><path class="cls-1" d="M194.93,96.15l0,2.49a2.66,2.66,0,0,1-.64,1.8,2.16,2.16,0,0,1-1.71.81h-2.67V99.13h2.22a.86.86,0,0,0,.55-.16,1.09,1.09,0,0,0,.1-.53V96.15Zm-1.49-2a1.36,1.36,0,0,1-.4,1,1.44,1.44,0,0,1-.46.28,1.85,1.85,0,0,1-.53.11,1.23,1.23,0,0,1-1.37-1.36v0a1.05,1.05,0,0,1,.36-.83,1.48,1.48,0,0,1,1-.33,2.28,2.28,0,0,1,.55.08,1,1,0,0,1,.45.25A1,1,0,0,1,193.44,94.2Z" transform="translate(-53.93)"/><path class="cls-1" d="M200.76,91.37l-3.74.1c-.17.06-.37.31-.59.74l-1.61-.58c.46-1,.92-1.56,1.37-1.71a14.85,14.85,0,0,1,2.46-.19l2.11-.06Zm-1.33,9.88h-2.14v-9h2.14Z" transform="translate(-53.93)"/><path class="cls-1" d="M210.29,98.44a2.83,2.83,0,0,1-.92,2.1,3,3,0,0,1-2.15.88,3,3,0,0,1-3-3,3.36,3.36,0,0,1,.11-.88,1.69,1.69,0,0,1,.26-.57c.15-.25.3-.47.45-.68a8.54,8.54,0,0,0,.62-.68l-.39-.42,1.48-1.49,2.82,3A2.55,2.55,0,0,1,210.29,98.44Zm-2.45-.56-.69-.73-.52.59a1.13,1.13,0,0,0-.27.58,1.09,1.09,0,0,0,0,.18.86.86,0,0,0,.05.32.72.72,0,0,0,.31.37.84.84,0,0,0,.56.18h0a1,1,0,0,0,.62-.22.66.66,0,0,0,.25-.56v0A.91.91,0,0,0,207.84,97.88Z" transform="translate(-53.93)"/><path class="cls-1" d="M215.08,101.25c-1.39,0-2.28-.25-2.69-.77a2.72,2.72,0,0,1-.6-1.7V91.66h2.13v6.5c0,.41.1.68.31.8a1.6,1.6,0,0,0,.85.19Z" transform="translate(-53.93)"/><path class="cls-1" d="M223.59,101.25h-.31a5.57,5.57,0,0,1-1.25-.12,1.76,1.76,0,0,1-1-.57,2.28,2.28,0,0,1-1.92.69h-4.51V99.13h4.51c.17,0,.26-.08.26-.23a3,3,0,0,0-.51-.64l-.92-1-.49-.55-1.92-2-.32-2,5.84-2.09.3,2.14-1,.41-2.34.9,3.41,3.76a7.79,7.79,0,0,0,1.06,1,2.59,2.59,0,0,0,1.1.2Zm-3-11.08-5.4,1.94L215,91.3l5.4-2Z" transform="translate(-53.93)"/><path class="cls-1" d="M234.89,98.65a3.12,3.12,0,0,1-.58,2,2.08,2.08,0,0,1-1.8.86,2.65,2.65,0,0,1-1.88-.8,2.37,2.37,0,0,1-1.71.76,3.1,3.1,0,0,1-.49,0,3.76,3.76,0,0,1-1.39-.9,2.78,2.78,0,0,1-1,.61l-.83.14h-2.13V99.13h2l.14,0h.11a1.25,1.25,0,0,0,.2-.14c.09-.07.13-.22.13-.46V96.15h2.13V98.6a.58.58,0,0,0,.28.5,1,1,0,0,0,.53.2h0c.36,0,.53-.16.53-.47V96.15h2.13V98.6a.59.59,0,0,0,.26.5.93.93,0,0,0,.55.2h0a.68.68,0,0,0,.32-.11.6.6,0,0,0,.19-.36V96.15h2.15Zm-4.79-4.51a1.15,1.15,0,0,1-.38.9,1.28,1.28,0,0,1-.92.36,1.32,1.32,0,0,1-.93-.36,1.16,1.16,0,0,1-.39-.9,1,1,0,0,1,.39-.8,1.39,1.39,0,0,1,.93-.32,1.63,1.63,0,0,1,.49,0,1.42,1.42,0,0,1,.42.25A1,1,0,0,1,230.1,94.14Zm1.51-2.32v.07a1.14,1.14,0,0,1-.82,1.08,1.85,1.85,0,0,1-.53.1,1.52,1.52,0,0,1-.91-.33,1.16,1.16,0,0,1-.39-.92,1,1,0,0,1,.4-.81,1.39,1.39,0,0,1,.9-.31,2,2,0,0,1,.54.06,1.32,1.32,0,0,1,.41.23A1,1,0,0,1,231.61,91.82Zm1.47,2.32a1.13,1.13,0,0,1-.41.87,1.41,1.41,0,0,1-.91.39,1.34,1.34,0,0,1-.89-.36,1.12,1.12,0,0,1-.42-.9,1,1,0,0,1,.38-.82,1.56,1.56,0,0,1,1.84,0A1,1,0,0,1,233.08,94.14Z" transform="translate(-53.93)"/><path class="cls-1" d="M241.18,103.58a3.75,3.75,0,0,1-2.75,1.16h-2.11l-.3-2.13h2.18a2.06,2.06,0,0,0,1.29-.39,2.75,2.75,0,0,0,.38-.45,1.56,1.56,0,0,0,.27-.53,4.32,4.32,0,0,1-2.55-.62,2.75,2.75,0,0,1-1-2.36v-.09a2.62,2.62,0,0,1,2.85-3.23,2.43,2.43,0,0,1,2.42,1.41,7.23,7.23,0,0,1,.45,3C242.32,101.38,241.94,102.8,241.18,103.58Zm-1-4.45V98.05a1.14,1.14,0,0,0-.22-.8.75.75,0,0,0-.57-.24h0a.75.75,0,0,0-.58.27,1.43,1.43,0,0,0-.21.89.9.9,0,0,0,.34.76,1.13,1.13,0,0,0,.49.16Z" transform="translate(-53.93)"/><path class="cls-1" d="M250.11,101.25h-.85a1.38,1.38,0,0,1-.36-.2,3.3,3.3,0,0,1-.35,1.49,3.92,3.92,0,0,1-.94,1.21,3.82,3.82,0,0,1-2.59,1H242.9l-.3-2.13h2.34a1.85,1.85,0,0,0,1.26-.49,1.5,1.5,0,0,0,.56-1.17v-4.8h2.14v2.37a.64.64,0,0,0,.21.5,2.87,2.87,0,0,0,1,.11Z" transform="translate(-53.93)"/><path class="cls-1" d="M256.41,98.39a1.21,1.21,0,0,1,0,.19,2.46,2.46,0,0,1-.78,1.92,3.22,3.22,0,0,1-2.21.75h-3.8V99.13h4.19a.39.39,0,0,0,.35-.23,5.82,5.82,0,0,1-2.49-.36,2.14,2.14,0,0,1-1-2.1,2.43,2.43,0,0,1,.8-1.89,2.87,2.87,0,0,1,2-.72,2.66,2.66,0,0,1,1.9.71,3.22,3.22,0,0,1,1,1.86,4.54,4.54,0,0,1,.06.77Zm-1.8-6.53v0a1.22,1.22,0,0,1-.38.86,2.05,2.05,0,0,1-.43.26,1.9,1.9,0,0,1-.49.09,1.33,1.33,0,0,1-.93-.35,1.16,1.16,0,0,1-.37-.9,1,1,0,0,1,.38-.82,1.56,1.56,0,0,1,1.84,0A1,1,0,0,1,254.61,91.86ZM254.45,97a1.12,1.12,0,0,0-.39-.89,1.44,1.44,0,0,0-.94-.33c-.53,0-.79.19-.79.56a.66.66,0,0,0,.28.55,4.25,4.25,0,0,0,1.17.11Z" transform="translate(-53.93)"/><path class="cls-1" d="M66.75,26.58l0,9a8.55,8.55,0,0,1-2.26,5.82A7,7,0,0,1,59,44H54.56l-.63-4.42h4a4.84,4.84,0,0,0,3.18-1,2.88,2.88,0,0,0,1.21-2.26V26.58Zm0-6.65a2.49,2.49,0,0,1-.84,1.92,3,3,0,0,1-2,.77,4.44,4.44,0,0,1-1.13-.13,1.82,1.82,0,0,1-.9-.54,2.71,2.71,0,0,1-.79-2,2.32,2.32,0,0,1,.79-1.82,3.12,3.12,0,0,1,2-.65h.17a3.75,3.75,0,0,1,1,.11,2.1,2.1,0,0,1,.86.48,3.39,3.39,0,0,1,.66.8A4.7,4.7,0,0,1,66.75,19.93Z" transform="translate(-53.93)"/><path class="cls-1" d="M77.24,36.92q-4.21,0-5.44-1.57a5.44,5.44,0,0,1-1.22-3.44V17.49h4.3V30.64c0,.84.21,1.39.63,1.64a3.39,3.39,0,0,0,1.73.37Z" transform="translate(-53.93)"/><path class="cls-1" d="M100.12,31.64a6.36,6.36,0,0,1-1.18,4,4.26,4.26,0,0,1-3.64,1.74,5.28,5.28,0,0,1-3.81-1.63A4.83,4.83,0,0,1,88,37.3a6.69,6.69,0,0,1-1-.09,7.25,7.25,0,0,1-2.81-1.82,5.74,5.74,0,0,1-2,1.24l-1.69.29h-4.3V32.61h4.13l.29,0h.21a2.69,2.69,0,0,0,.42-.29,1.2,1.2,0,0,0,.25-.92V26.58H85.9v5a1.22,1.22,0,0,0,.57,1,1.9,1.9,0,0,0,1.06.39h.08c.71,0,1.07-.32,1.07-1V26.58H93v5a1.22,1.22,0,0,0,.53,1,1.88,1.88,0,0,0,1.11.39h.1a1.33,1.33,0,0,0,.65-.21,1.3,1.3,0,0,0,.38-.75V26.58h4.36Z" transform="translate(-53.93)"/><path class="cls-1" d="M117.45,36.92h-1.11l-.6,0a2.35,2.35,0,0,1-.74-.4,6.61,6.61,0,0,1-.7,3A7.9,7.9,0,0,1,112.4,42a7.73,7.73,0,0,1-5.24,2h-4.31l-.61-4.32H107a3.84,3.84,0,0,0,2.56-1,3,3,0,0,0,1.14-2.37V26.58H115v4.81a1.32,1.32,0,0,0,.42,1,6,6,0,0,0,2,.21Z" transform="translate(-53.93)"/><path class="cls-1" d="M131.13,36.92h-1.6a10.71,10.71,0,0,1-2-.13,5.13,5.13,0,0,1-1.62-.73,5.14,5.14,0,0,1-2.28.67,38.92,38.92,0,0,1-4.42.19h-2.7V32.61h2.91c1.52,0,2.38,0,2.57,0,1.17-.17,1.76-.62,1.76-1.36V26.58h4.38v4.64q0,.93.42,1.2a16.35,16.35,0,0,0,2.6.19Zm-7.9,4V41a1.87,1.87,0,0,1-.75,1.55,2.52,2.52,0,0,1-1.89.65,2.58,2.58,0,0,1-1.88-.65,1.86,1.86,0,0,1-.52-.72,2.24,2.24,0,0,1-.24-.92,2.58,2.58,0,0,1,.78-1.82,5,5,0,0,1,.86-.52,4.28,4.28,0,0,1,1-.19,2.66,2.66,0,0,1,1.88.72A2.37,2.37,0,0,1,123.23,40.94Zm3,4.71a2.1,2.1,0,0,1-.7,1.63,2.79,2.79,0,0,1-1.94.64,3.44,3.44,0,0,1-2-.59,2.12,2.12,0,0,1-.74-1.68,2.5,2.5,0,0,1,.78-1.82,10,10,0,0,1,.88-.54,5,5,0,0,1,1-.17,2.55,2.55,0,0,1,1.84.73A2.47,2.47,0,0,1,126.25,45.65Zm3-4.71a2,2,0,0,1-.82,1.65,2.94,2.94,0,0,1-1.86.64,2.77,2.77,0,0,1-1.82-.64,2,2,0,0,1-.78-1.65,2.45,2.45,0,0,1,.74-1.82,5,5,0,0,1,.86-.52,5.15,5.15,0,0,1,1-.19,2.67,2.67,0,0,1,1.91.72A2.38,2.38,0,0,1,129.26,40.94Z" transform="translate(-53.93)"/><path class="cls-1" d="M141.77,31.62a5.44,5.44,0,0,1-1.3,3.65,4.46,4.46,0,0,1-3.5,1.65h-6.79V32.61h5.87a1.53,1.53,0,0,0,1.09-.32,2,2,0,0,0,.23-1.07V26.58h4.4Zm-5.68,9.89a2.55,2.55,0,0,1-.78,1.74,5.84,5.84,0,0,1-.87.54,3.43,3.43,0,0,1-1,.19,3.06,3.06,0,0,1-1.89-.69,2.43,2.43,0,0,1-.75-1.78,2.25,2.25,0,0,1,.71-1.7,3.43,3.43,0,0,1,.9-.43,3.24,3.24,0,0,1,1-.18,2.86,2.86,0,0,1,1.88.62A2.18,2.18,0,0,1,136.09,41.51Zm5.76,0a2.55,2.55,0,0,1-.78,1.74,4.53,4.53,0,0,1-.88.54,3.21,3.21,0,0,1-1,.19,2.64,2.64,0,0,1-1.87-.68,2.45,2.45,0,0,1-.77-1.79v-.09a2.15,2.15,0,0,1,.71-1.61,3.51,3.51,0,0,1,.89-.43,3.21,3.21,0,0,1,1-.18,2.82,2.82,0,0,1,1.88.62A2.19,2.19,0,0,1,141.85,41.51Z" transform="translate(-53.93)"/><path class="cls-1" d="M152.34,36.92q-4.22,0-5.44-1.57a5.5,5.5,0,0,1-1.22-3.44V17.49H150V30.64a1.78,1.78,0,0,0,.64,1.64,3.35,3.35,0,0,0,1.72.37Z" transform="translate(-53.93)"/><path class="cls-1" d="M171.15,32.58c0,.3,0,.5,0,.6a5.72,5.72,0,0,1-.15.64c0,.17-.14.39-.25.67a6,6,0,0,1-.4.69,7.26,7.26,0,0,1-1.55,1.94,4.74,4.74,0,0,1-3.26,1,13,13,0,0,1-6.33-2,6.92,6.92,0,0,1-2.35.74c-.63,0-2.45.08-5.46.08V32.61h3l-.35-.65-.4-.95c0-.17-.08-.43-.17-.79,0-.19-.05-.46-.08-.82a4.82,4.82,0,0,1,1.66-3.68,5.47,5.47,0,0,1,3.83-1.53,4.79,4.79,0,0,1,1.46.23l3-2.83q1,1,3.6,3.75a26.66,26.66,0,0,1,2.47,2.93A8.07,8.07,0,0,1,171.15,32.58Zm-10.47-2.72a1.8,1.8,0,0,0-.49-1.23,1.75,1.75,0,0,0-1.36-.55,1.71,1.71,0,0,0-1.08.36,1.94,1.94,0,0,0-.42,1,2,2,0,0,0,.54,1.28,6.22,6.22,0,0,0,1.57.9A2.08,2.08,0,0,0,160.68,29.86ZM167,32.4a1.78,1.78,0,0,0-.15-.76,6.94,6.94,0,0,0-.46-.84,9.53,9.53,0,0,0-1.78-2l.13,1a5.43,5.43,0,0,1-.38,2,7.82,7.82,0,0,1-.94,1.66,4.28,4.28,0,0,0,1.86.54,1.69,1.69,0,0,0,.86-.21A1.4,1.4,0,0,0,167,32.4Z" transform="translate(-53.93)"/><path class="cls-1" d="M69.5,67.28H65.12V60.7H60.05v6.58H55.67V51.14h4.38v6h5.07v-6H69.5Z" transform="translate(-53.93)"/><path class="cls-1" d="M78.75,57.13l2.78-6h4.73L81,61v6.3h-4.4V61.11l-5.31-10H76Z" transform="translate(-53.93)"/><path class="cls-1" d="M99.71,56.28a5.4,5.4,0,0,1-1.59,4.17,6.42,6.42,0,0,1-4.53,1.48H92.36v5.35H88V51.14h5.59a6.85,6.85,0,0,1,4.59,1.34A4.76,4.76,0,0,1,99.71,56.28Zm-7.35,2.09h.8a2.17,2.17,0,0,0,1.56-.55,2,2,0,0,0,.58-1.52c0-1.09-.61-1.64-1.81-1.64H92.36Z" transform="translate(-53.93)"/><path class="cls-1" d="M111.87,67.28h-9.59V51.14h9.59v3.5h-5.23v2.54h4.84v3.5h-4.84v3h5.23Z" transform="translate(-53.93)"/><path class="cls-1" d="M119.05,61.41v5.87h-4.36V51.14H120c4.38,0,6.58,1.59,6.58,4.77a4.76,4.76,0,0,1-2.74,4.34l4.7,7h-4.94l-3.42-5.87Zm0-3.28h.82c1.52,0,2.28-.67,2.28-2,0-1.11-.74-1.67-2.24-1.67h-.86Z" transform="translate(-53.93)"/><path class="cls-1" d="M140.54,62.38a4.77,4.77,0,0,1-.76,2.67,5,5,0,0,1-2.2,1.81,8.09,8.09,0,0,1-3.36.64,13.77,13.77,0,0,1-2.71-.22,10.8,10.8,0,0,1-2.27-.79V62.6a13,13,0,0,0,2.59,1,9.7,9.7,0,0,0,2.48.36,2.36,2.36,0,0,0,1.42-.34,1,1,0,0,0,.45-.87.92.92,0,0,0-.18-.57,2.15,2.15,0,0,0-.58-.51c-.27-.17-1-.51-2.15-1a10.46,10.46,0,0,1-2.37-1.4,4.11,4.11,0,0,1-1.17-1.54,5.19,5.19,0,0,1-.38-2.06A4.14,4.14,0,0,1,131,52.16a7.16,7.16,0,0,1,4.46-1.25,12.53,12.53,0,0,1,5.11,1.16l-1.33,3.37a9.72,9.72,0,0,0-3.91-1,2,2,0,0,0-1.24.3.91.91,0,0,0-.38.74,1.07,1.07,0,0,0,.49.85,19.54,19.54,0,0,0,2.66,1.37,7.3,7.3,0,0,1,2.9,2A4.38,4.38,0,0,1,140.54,62.38Z" transform="translate(-53.93)"/><path class="cls-1" d="M152.94,67.28l-.8-3H146.9l-.82,3h-4.79l5.27-16.2h5.82l5.33,16.2Zm-1.7-6.6-.7-2.65c-.16-.59-.35-1.35-.59-2.28s-.38-1.61-.45-2c-.07.37-.2,1-.4,1.85s-.62,2.56-1.29,5.09Z" transform="translate(-53.93)"/><path class="cls-1" d="M171,67.28H158.38V64.59l7-9.93h-6.82V51.14h12.23v2.69l-7,9.93H171Z" transform="translate(-53.93)"/><rect class="cls-2" x="122.47" width="83.6" height="83.6"/><polygon class="cls-1" points="167.93 16.43 167.93 24.34 172.87 24.34 172.87 37.5 164.8 41.06 156.78 37.5 156.78 24.39 161.67 24.39 161.67 16.43 138.9 16.43 138.9 67.17 161.52 67.17 161.52 56.63 153.17 56.63 161.34 47.71 173.3 47.71 173.3 56.63 167.94 56.63 167.94 67.17 189.65 67.17 189.65 16.43 167.93 16.43"/><rect class="cls-1" x="122.47" y="16.52" width="9.37" height="1.14"/><rect class="cls-1" x="122.47" y="19.1" width="5.13" height="1.14"/><rect class="cls-1" x="122.47" y="21.62" width="5.13" height="1.14"/><rect class="cls-1" x="122.47" y="23.97" width="5.13" height="1.14"/><rect class="cls-1" x="122.47" y="26.49" width="5.13" height="1.14"/><rect class="cls-1" x="122.47" y="28.87" width="9.37" height="1.14"/><rect class="cls-1" x="122.47" y="31.44" width="5.13" height="1.14"/><rect class="cls-1" x="122.47" y="33.97" width="5.13" height="1.14"/><rect class="cls-1" x="122.47" y="36.32" width="5.13" height="1.14"/><rect class="cls-1" x="122.47" y="38.84" width="5.13" height="1.14"/><rect class="cls-1" x="122.47" y="41.06" width="9.37" height="1.14"/><rect class="cls-1" x="122.47" y="43.63" width="5.13" height="1.14"/><rect class="cls-1" x="122.47" y="46.16" width="5.13" height="1.14"/><rect class="cls-1" x="122.47" y="48.51" width="5.13" height="1.14"/><rect class="cls-1" x="122.47" y="51.03" width="5.13" height="1.14"/><rect class="cls-1" x="122.47" y="53.4" width="9.37" height="1.14"/><rect class="cls-1" x="122.47" y="65.89" width="9.37" height="1.14"/><rect class="cls-1" x="122.47" y="55.98" width="5.13" height="1.14"/><rect class="cls-1" x="122.47" y="58.5" width="5.13" height="1.14"/><rect class="cls-1" x="122.47" y="60.85" width="5.13" height="1.14"/><rect class="cls-1" x="122.47" y="63.37" width="5.13" height="1.14"/></svg>