<svg width="20" height="21" viewBox="0 0 20 21" fill="none" xmlns="http://www.w3.org/2000/svg">
<g clip-path="url(#clip0_102_150)">
<path d="M10 20.9282C12.2597 20.9282 14.3842 20.0482 15.9821 18.4503C17.58 16.8525 18.46 14.728 18.46 12.4682C18.46 10.9101 18.0389 9.39097 17.2423 8.075C17.1515 7.92504 16.9721 7.85387 16.8031 7.90105C16.6343 7.94816 16.5175 8.10203 16.5175 8.2773C16.5175 9.13039 15.8204 10.122 14.9216 10.122C14.0386 10.122 13.3202 9.40359 13.3202 8.52055C13.3202 8.21781 13.4026 7.92512 13.5585 7.67418C13.8454 7.22066 13.9979 6.69027 13.9979 6.14301C13.9979 4.60832 12.7985 3.34957 11.267 3.27629C10.6542 3.23933 10.1745 2.72933 10.1745 2.11433C10.1745 1.89992 10.2298 1.69418 10.3343 1.51933C10.4121 1.38933 10.4077 1.22613 10.323 1.1005C10.2384 0.974841 10.0887 0.909567 9.93906 0.932849C9.2552 1.03922 8.6277 1.38738 8.17223 1.91324C7.71129 2.44535 7.45742 3.12582 7.45742 3.82929C7.45742 4.42871 7.63856 5.00699 7.98117 5.50168C7.98266 5.50379 7.9841 5.50586 7.98559 5.50793C8.20289 5.80875 8.3177 6.16258 8.3177 6.53109C8.3177 7.49137 7.53649 8.27258 6.57621 8.27258C5.63465 8.27258 4.86977 7.53793 4.835 6.60015C4.8293 6.44672 4.73426 6.3109 4.59207 6.25289C4.44992 6.195 4.28699 6.22566 4.17563 6.3314C3.35207 7.11355 2.70395 8.03566 2.24938 9.07207C1.77872 10.1451 1.54008 11.2878 1.54008 12.4683C1.54008 14.1112 2.01156 15.7043 2.90356 17.0756C3.02125 17.2564 3.26317 17.3076 3.44403 17.19C3.62485 17.0724 3.67606 16.8304 3.55848 16.6496C2.7491 15.4054 2.32133 13.9596 2.32133 12.4683C2.32133 10.5847 2.9875 8.81785 4.21137 7.42058C4.5691 8.38019 5.49172 9.05383 6.57621 9.05383C7.96723 9.05383 9.09895 7.92211 9.09895 6.53109C9.09895 5.99871 8.93383 5.48801 8.62141 5.05394C8.37098 4.69125 8.23863 4.26785 8.23863 3.82929C8.23863 3.01613 8.70832 2.28476 9.4025 1.9214C9.39633 1.98519 9.39324 2.04957 9.39324 2.11433C9.39324 3.14328 10.1972 3.99629 11.2235 4.05633C11.225 4.05644 11.2264 4.05652 11.2279 4.0566C12.3431 4.10898 13.2166 5.02547 13.2166 6.14301C13.2166 6.54219 13.106 6.9282 12.8966 7.25922C12.6621 7.63676 12.539 8.07199 12.539 8.52055C12.539 9.83441 13.6079 10.9033 14.9217 10.9033C15.557 10.9033 16.1618 10.6041 16.6248 10.061C16.7962 9.85988 16.9383 9.63515 17.0472 9.3975C17.4624 10.3582 17.6788 11.403 17.6788 12.4683C17.6787 16.7023 14.2341 20.147 10 20.147C8.56367 20.147 7.16324 19.748 5.95008 18.9934C5.76692 18.8794 5.52598 18.9356 5.41207 19.1187C5.29813 19.3019 5.35426 19.5428 5.53742 19.6568C6.87453 20.4886 8.4177 20.9282 10 20.9282Z" fill="#121212"/>
<path d="M11.0812 17.2531C11.1385 17.2531 11.1966 17.2405 11.2516 17.2138C11.4457 17.1196 11.5266 16.8858 11.4323 16.6918L9.28296 12.2658C9.18874 12.0717 8.95492 11.9908 8.76097 12.085C8.56691 12.1793 8.48597 12.413 8.58023 12.607L10.7296 17.033C10.7971 17.1722 10.9364 17.2531 11.0812 17.2531Z" fill="#121212"/>
<path d="M11.9061 13.9999C12.5954 13.9999 13.1562 13.4391 13.1562 12.7497C13.1562 12.0603 12.5954 11.4995 11.9061 11.4995C11.2167 11.4995 10.6558 12.0603 10.6558 12.7497C10.6558 13.4391 11.2166 13.9999 11.9061 13.9999ZM11.9061 12.2807C12.1646 12.2807 12.375 12.4911 12.375 12.7497C12.375 13.0083 12.1646 13.2187 11.9061 13.2187C11.6475 13.2187 11.4371 13.0083 11.4371 12.7497C11.4371 12.4911 11.6475 12.2807 11.9061 12.2807Z" fill="#121212"/>
<path d="M8.094 17.8121C8.78338 17.8121 9.34424 17.2513 9.34424 16.5619C9.34424 15.8725 8.78342 15.3116 8.094 15.3116C7.40466 15.3116 6.8438 15.8725 6.8438 16.5619C6.8438 17.2513 7.40466 17.8121 8.094 17.8121ZM8.094 16.0929C8.3526 16.0929 8.56299 16.3033 8.56299 16.5619C8.56299 16.8205 8.3526 17.0309 8.094 17.0309C7.83545 17.0309 7.62506 16.8205 7.62506 16.5619C7.62506 16.3033 7.83545 16.0929 8.094 16.0929Z" fill="#121212"/>
<path d="M4.36084 18.6309C4.46397 18.6309 4.56475 18.5892 4.63736 18.5165C4.71002 18.4438 4.75146 18.343 4.75146 18.2403C4.75146 18.1372 4.71002 18.0368 4.63736 17.9642C4.56475 17.8915 4.46397 17.8497 4.36084 17.8497C4.25807 17.8497 4.15772 17.8915 4.08502 17.9642C4.01197 18.0368 3.97022 18.1376 3.97022 18.2403C3.97022 18.343 4.01197 18.4438 4.08502 18.5165C4.15768 18.5892 4.25807 18.6309 4.36084 18.6309Z" fill="#121212"/>
</g>
<defs>
<clipPath id="clip0_102_150">
<rect width="20" height="19.9155" fill="white" transform="matrix(-1 0 0 1 20 0.928192)"/>
</clipPath>
</defs>
</svg>
