<svg width="20" height="21" viewBox="0 0 20 21" fill="none" xmlns="http://www.w3.org/2000/svg">
<g clip-path="url(#clip0_102_122)">
<path d="M0 15.0457C0 14.458 0.229376 13.9049 0.645899 13.4884L3.79984 10.3344C3.80344 10.3305 3.80672 10.3264 3.81051 10.3227C3.8143 10.3189 3.81836 10.3156 3.82227 10.312L4.87574 9.25859C5.02832 9.10609 5.27559 9.10609 5.4282 9.25859C5.58074 9.41113 5.58074 9.65847 5.4282 9.81105L4.63977 10.5995L5.94418 11.9039C6.01172 11.9714 6.05215 12.0613 6.05789 12.1567C6.09926 12.8439 6.39293 13.4944 6.88371 13.9872C7.37766 14.4791 8.02816 14.7728 8.71543 14.8142C8.81074 14.8199 8.90066 14.8604 8.9682 14.9279L10.2726 16.2323L14.0579 12.447L12.7541 11.1431C12.6865 11.0756 12.6461 10.9857 12.6404 10.8903C12.5989 10.2017 12.3051 9.55144 11.8129 9.05921C11.3206 8.56695 10.6703 8.27308 9.98172 8.23171C9.88641 8.22597 9.79645 8.1855 9.72895 8.118L8.42508 6.81414L7.93062 7.30859C7.85434 7.38484 7.75438 7.423 7.65441 7.423C7.55445 7.423 7.45449 7.38484 7.3782 7.30859C7.22566 7.15605 7.22566 6.90871 7.3782 6.75613L8.14863 5.98566C8.14871 5.98558 8.14875 5.9855 8.14883 5.98542C8.14891 5.98535 8.14898 5.98531 8.14906 5.98523L9.09336 5.04089C10.5429 3.59144 11.9187 3.67562 12.9234 3.7371C13.5196 3.77363 13.8666 3.78437 14.0695 3.58152L14.5695 3.08156L14.539 3.05105C14.4657 2.97777 14.4246 2.87835 14.4246 2.77476C14.4246 2.67113 14.4658 2.57175 14.5391 2.49851L15.7525 1.28617C16.0196 1.01906 16.3761 0.871948 16.7562 0.871948C17.1363 0.871948 17.4928 1.01906 17.7599 1.28617L19.5858 3.11207C19.8529 3.37917 20 3.73562 20 4.11574C20 4.49585 19.8529 4.8523 19.5859 5.11929L18.3734 6.33289C18.3002 6.40621 18.2008 6.44742 18.0972 6.44746H18.0971C17.9935 6.44746 17.8941 6.40628 17.8209 6.33304L17.7904 6.30253L17.2904 6.8025C17.0876 7.00531 17.0983 7.35246 17.1348 7.94851C17.1963 8.9532 17.2805 10.3291 15.831 11.7786L14.8867 12.723C14.8866 12.723 14.8866 12.7231 14.8865 12.7232C14.8865 12.7232 14.8864 12.7233 14.8863 12.7233L10.5594 17.0503C10.5559 17.054 10.5529 17.0578 10.5493 17.0614C10.5457 17.065 10.5418 17.0681 10.5381 17.0715L7.38359 20.226C6.96707 20.6426 6.41398 20.8719 5.82625 20.8719C4.73477 20.8719 3.82668 20.0732 3.6541 19.0293C2.72828 18.876 1.99586 18.1437 1.84266 17.2178C0.798788 17.0453 0 16.1372 0 15.0457ZM19.0334 4.56703C19.1529 4.44746 19.2188 4.28722 19.2188 4.11574C19.2188 3.94425 19.1529 3.78402 19.0334 3.66449L17.2075 1.83859C17.0879 1.71906 16.9277 1.6532 16.7562 1.6532C16.5847 1.6532 16.4245 1.71906 16.3048 1.83871L15.3677 2.77496L18.097 5.50425L19.0334 4.56703ZM16.355 7.99625C16.3146 7.33566 16.2764 6.71164 16.738 6.25007L17.2379 5.75011L15.1218 3.63402L14.6218 4.13398C14.1602 4.59558 13.5362 4.55734 12.8756 4.51695C11.9244 4.45875 10.8463 4.39273 9.6457 5.59339L8.97742 6.26171L10.1799 7.46417C11.0028 7.54871 11.7739 7.9155 12.3652 8.50675C12.9565 9.09808 13.3232 9.8691 13.4077 10.692L14.6102 11.8945L15.2785 11.2262C16.4792 10.0255 16.4132 8.94742 16.355 7.99625ZM1.8552 16.4234C1.93922 16.0012 2.14566 15.6127 2.45691 15.3003C2.60922 15.1476 2.85649 15.1472 3.00937 15.2994C3.16215 15.4517 3.16258 15.6991 3.01027 15.8519C2.74176 16.1213 2.59387 16.4784 2.59387 16.8573C2.59387 17.6407 3.23125 18.2781 4.01473 18.2781C4.39363 18.2781 4.75066 18.1302 5.02008 17.8617C5.17293 17.7094 5.4202 17.7098 5.57254 17.8626C5.7248 18.0154 5.72441 18.2628 5.57164 18.4151C5.25934 18.7263 4.8707 18.9328 4.44859 19.0168C4.6041 19.6331 5.16273 20.0907 5.82625 20.0907C6.20531 20.0907 6.56219 19.9426 6.83117 19.6736L9.72008 16.7846L8.51707 15.5816C7.69586 15.4971 6.92496 15.1309 6.33121 14.5396C5.74098 13.9469 5.37481 13.1761 5.29035 12.3548L4.08731 11.1518L1.19836 14.0407C0.929375 14.3097 0.78125 14.6666 0.78125 15.0457C0.78125 15.7092 1.23883 16.2678 1.8552 16.4234Z" fill="#121212"/>
<path d="M8.526 9.18656C8.67857 9.03406 8.92584 9.03406 9.07846 9.18656L11.6407 11.7488C11.7933 11.9014 11.7933 12.1487 11.6407 12.3013C11.5644 12.3775 11.4645 12.4157 11.3645 12.4157C11.2646 12.4157 11.1646 12.3775 11.0883 12.3013L8.52603 9.73902C8.37346 9.58648 8.37346 9.33913 8.526 9.18656Z" fill="#121212"/>
<path d="M7.75033 10.5153L10.3126 13.0776C10.4651 13.2301 10.4651 13.4774 10.3126 13.63C10.2363 13.7063 10.1363 13.7444 10.0364 13.7444C9.93639 13.7444 9.83647 13.7063 9.76018 13.63L7.19791 11.0678C7.04537 10.9152 7.04537 10.6679 7.19791 10.5153C7.35049 10.3628 7.59776 10.3628 7.75033 10.5153Z" fill="#121212"/>
<path d="M6.70661 8.56859C6.6306 8.64456 6.53138 8.68246 6.43204 8.68246C6.33196 8.68246 6.23185 8.64402 6.15528 8.56749C6.00275 8.41495 6.00384 8.16648 6.15638 8.01394C6.30896 7.86144 6.55622 7.86144 6.70884 8.01394C6.86138 8.16648 6.86138 8.41382 6.70884 8.5664L6.70661 8.56859Z" fill="#121212"/>
</g>
<defs>
<clipPath id="clip0_102_122">
<rect width="20" height="19.9155" fill="white" transform="matrix(-1 0 0 1 20 0.871948)"/>
</clipPath>
</defs>
</svg>
